<svg xmlns="http://www.w3.org/2000/svg" width="325" height="289.778" viewBox="0 0 325 289.778">
  <g id="what-is-vin" transform="translate(-103 -91.401)">
    <g id="Group_405" data-name="Group 405" transform="translate(118.699 137.775)">
      <g id="Group_404" data-name="Group 404" transform="translate(-15.7 -46.375)">
        <g id="Group_389" data-name="Group 389" transform="translate(116.8 103.93)">
          <path id="Path_930" data-name="Path 930" d="M711.731,2077.5H593.468a16.2,16.2,0,0,0-16.134,15.078L570.1,2199.665c5.2.731,10.4,1.341,15.728,1.87,13.045,1.016,25.847,1.787,38.893-.529,16.378-2.8,31.984-1.26,48.118-3.333,6.137-.771,12.273-2.316,18.41-3.333,14.712-2.073,29.017-1.909,43.323-1.625l-6.787-100.179A16.062,16.062,0,0,0,711.731,2077.5Z" transform="translate(-548.398 -2074.615)" fill="#d8ecda"/>
          <path id="Path_931" data-name="Path 931" d="M811.325,2092.815a16.126,16.126,0,0,0-13.98-14.915L710.7,2184.3l40.721,4.308,61.286-75.266Z" transform="translate(-631.858 -2074.853)" fill="#99d1a6"/>
          <path id="Path_932" data-name="Path 932" d="M766.519,2077.5H750.344L675.2,2169.794l9.754,7.925Z" transform="translate(-610.785 -2074.615)" fill="#99d1a6"/>
          <g id="Group_385" data-name="Group 385" transform="translate(15.768 150.653)">
            <path id="Path_933" data-name="Path 933" d="M575.576,2475.888H560.905a5.4,5.4,0,0,1-5.405-5.405V2441.1h25.522v29.383A5.437,5.437,0,0,1,575.576,2475.888Z" transform="translate(-555.5 -2441.1)" fill="#101526"/>
            <path id="Path_934" data-name="Path 934" d="M947.576,2475.888H932.905a5.4,5.4,0,0,1-5.405-5.405V2441.1h25.522v29.383A5.49,5.49,0,0,1,947.576,2475.888Z" transform="translate(-776.318 -2441.1)" fill="#101526"/>
          </g>
          <g id="Group_386" data-name="Group 386" transform="translate(18.735 0)">
            <path id="Path_935" data-name="Path 935" d="M707.276,2070.4H589.013a19.056,19.056,0,0,0-19.02,17.76L562.8,2195c1.91.285,3.861.569,5.771.813l7.234-107.291a13.269,13.269,0,0,1,13.208-12.354H707.276a13.27,13.27,0,0,1,13.208,12.354l6.746,99.893,5.812.122-6.787-100.422A19.046,19.046,0,0,0,707.276,2070.4Z" transform="translate(-562.8 -2070.4)" fill="#50a346"/>
          </g>
          <path id="Path_936" data-name="Path 936" d="M834.306,2070.4H776.8c.122,1.91.284,3.861.406,5.811h57.14a13.271,13.271,0,0,1,13.208,12.355l6.746,99.894,5.812.122-6.787-100.422A19.117,19.117,0,0,0,834.306,2070.4Z" transform="translate(-671.095 -2070.4)" fill="#50803b"/>
          <path id="Path_937" data-name="Path 937" d="M722.879,2452.437H525.489a3.087,3.087,0,0,1-3.089-3.089V2438.7H725.927v10.647A3.053,3.053,0,0,1,722.879,2452.437Z" transform="translate(-520.084 -2289.022)" fill="#05492a"/>
          <path id="Path_938" data-name="Path 938" d="M720.57,2406.732H521.149a4.354,4.354,0,0,1-4.349-4.349V2379.3H724.96v23.084A4.362,4.362,0,0,1,720.57,2406.732Z" transform="translate(-516.759 -2253.762)" fill="#1e7648"/>
          <path id="Path_939" data-name="Path 939" d="M724.9,2305.575H516.7v-20.848a29.607,29.607,0,0,1,29.627-29.627H695.233a29.607,29.607,0,0,1,29.627,29.627v20.848Z" transform="translate(-516.7 -2180.037)" fill="#50a346"/>
          <path id="Path_940" data-name="Path 940" d="M891.19,2255.1H842.3a168.146,168.146,0,0,1,6.258,26.5,178.21,178.21,0,0,1,1.991,23.977h67.625v-23.49A26.97,26.97,0,0,0,891.19,2255.1Z" transform="translate(-709.976 -2180.037)" fill="#50803b"/>
          <circle id="Ellipse_78" data-name="Ellipse 78" cx="12.761" cy="12.761" r="12.761" transform="translate(5.527 87.458)" fill="#d1e8cd"/>
          <circle id="Ellipse_79" data-name="Ellipse 79" cx="12.761" cy="12.761" r="12.761" transform="translate(5.527 87.458)" fill="#79c257"/>
          <path id="Path_941" data-name="Path 941" d="M870.6,2406.673h60.392a3.989,3.989,0,0,0,3.983-3.983V2379.2H872.429A173.25,173.25,0,0,1,870.6,2406.673Z" transform="translate(-726.774 -2253.703)" fill="#1e7648"/>
          <rect id="Rectangle_183" data-name="Rectangle 183" width="125.619" height="3.658" transform="translate(41.291 132.284)" fill="#101526"/>
          <rect id="Rectangle_184" data-name="Rectangle 184" width="125.619" height="3.658" transform="translate(41.291 138.096)" fill="#101526"/>
          <rect id="Rectangle_185" data-name="Rectangle 185" width="125.619" height="3.658" transform="translate(41.291 143.907)" fill="#101526"/>
          <g id="Group_388" data-name="Group 388" transform="translate(5.527 132.284)">
            <g id="Group_387" data-name="Group 387">
              <rect id="Rectangle_186" data-name="Rectangle 186" width="25.522" height="10.038" fill="#add362"/>
              <rect id="Rectangle_187" data-name="Rectangle 187" width="25.522" height="10.038" transform="translate(171.624)" fill="#add362"/>
            </g>
          </g>
          <rect id="Rectangle_188" data-name="Rectangle 188" width="21.133" height="10.038" transform="translate(9.916 132.284)" fill="#79c257"/>
          <rect id="Rectangle_189" data-name="Rectangle 189" width="21.824" height="10.038" transform="translate(180.849 132.284)" fill="#79c257"/>
          <path id="Path_942" data-name="Path 942" d="M532.4,2303.013a12.8,12.8,0,0,0,10.607,8.087l13.046-17.638A12.723,12.723,0,0,0,545.2,2285.7Z" transform="translate(-526.02 -2198.201)" fill="#add362"/>
          <circle id="Ellipse_80" data-name="Ellipse 80" cx="12.761" cy="12.761" r="12.761" transform="translate(177.273 87.458)" fill="#79c257"/>
          <path id="Path_943" data-name="Path 943" d="M955,2303.013a12.8,12.8,0,0,0,10.607,8.087l13.045-17.638A12.723,12.723,0,0,0,967.8,2285.7Z" transform="translate(-776.874 -2198.201)" fill="#add362"/>
          <path id="Path_944" data-name="Path 944" d="M996.309,2231.924h-9.835a4.674,4.674,0,0,1-4.674-4.673v-3.576a4.674,4.674,0,0,1,4.674-4.674h9.835a4.675,4.675,0,0,1,4.674,4.674v3.576A4.7,4.7,0,0,1,996.309,2231.924Z" transform="translate(-792.782 -2158.609)" fill="#50803b"/>
          <rect id="Rectangle_190" data-name="Rectangle 190" width="5.039" height="7.559" transform="translate(189.559 68.672) rotate(41.27)" fill="#50803b"/>
          <path id="Path_945" data-name="Path 945" d="M523.474,2231.924h9.835a4.674,4.674,0,0,0,4.674-4.673v-3.576a4.674,4.674,0,0,0-4.674-4.674h-9.835a4.675,4.675,0,0,0-4.674,4.674v3.576A4.674,4.674,0,0,0,523.474,2231.924Z" transform="translate(-517.947 -2158.609)" fill="#50a346"/>
          <rect id="Rectangle_191" data-name="Rectangle 191" width="5.039" height="7.559" transform="translate(24.431 74.385) rotate(138.73)" fill="#50a346"/>
        </g>
        <path id="Path_946" data-name="Path 946" d="M675.693,1875.2H539.02a20.38,20.38,0,0,0-20.32,20.32v5.852a20.38,20.38,0,0,0,20.32,20.32h85.02l60.391,98.228-21.377-98.228h12.639a20.38,20.38,0,0,0,20.32-20.32v-5.852A20.38,20.38,0,0,0,675.693,1875.2Z" transform="translate(-401.088 -1850.6)" fill="#fff" stroke="#939598" stroke-miterlimit="10" stroke-width="3"/>
        <g id="Group_390" data-name="Group 390" transform="translate(129.896 43.295)">
          <path id="Path_947" data-name="Path 947" d="M552.369,1929.828a.309.309,0,0,1-.2-.082c-.041-.041-.122-.081-.163-.162l-3.048-7.641a.347.347,0,0,1,0-.284.489.489,0,0,1,.2-.2.348.348,0,0,1,.284,0,.489.489,0,0,1,.2.2l2.682,6.746,2.682-6.746a.489.489,0,0,1,.2-.2.348.348,0,0,1,.285,0,.489.489,0,0,1,.2.2.345.345,0,0,1,0,.284l-3.048,7.641a.317.317,0,0,1-.162.162C552.41,1929.787,552.451,1929.828,552.369,1929.828Z" transform="translate(-548.925 -1921.334)"/>
          <path id="Path_948" data-name="Path 948" d="M580.446,1929.872a2.663,2.663,0,0,1-1.016-.2,1.841,1.841,0,0,1-.772-.61.251.251,0,0,1-.081-.284c.041-.122.041-.2.122-.244a.344.344,0,0,1,.285-.081.246.246,0,0,1,.244.122,1.679,1.679,0,0,0,.528.406,1.9,1.9,0,0,0,.691.122,2.5,2.5,0,0,0,1.1-.2,1.111,1.111,0,0,0,.447-.406,2.809,2.809,0,0,0,.284-.772,5.574,5.574,0,0,0,.081-1.26v-4.552a.406.406,0,0,1,.813,0v4.552a7.586,7.586,0,0,1-.122,1.463,2.717,2.717,0,0,1-.366.975,1.881,1.881,0,0,1-.853.731A3.494,3.494,0,0,1,580.446,1929.872Z" transform="translate(-566.517 -1921.378)"/>
          <path id="Path_949" data-name="Path 949" d="M606.014,1929.813a5.488,5.488,0,0,1-1.748-.244,2.379,2.379,0,0,1-1.1-.732,1.928,1.928,0,0,1-.488-1.138c-.04-.447-.081-.894-.081-1.341v-4.552a.406.406,0,0,1,.813,0v4.552a9.772,9.772,0,0,0,.081,1.259,1.492,1.492,0,0,0,.325.773,1.269,1.269,0,0,0,.813.488,6.526,6.526,0,0,0,1.422.162,4.719,4.719,0,0,0,1.422-.162,1.731,1.731,0,0,0,.813-.488,1.493,1.493,0,0,0,.325-.773,9.757,9.757,0,0,0,.081-1.259v-4.552a.406.406,0,0,1,.813,0v4.552c0,.447-.041.894-.081,1.341a2.219,2.219,0,0,1-.488,1.138,2.378,2.378,0,0,1-1.1.732A5.853,5.853,0,0,1,606.014,1929.813Z" transform="translate(-580.786 -1921.318)"/>
          <path id="Path_950" data-name="Path 950" d="M637.746,1925.771a1.342,1.342,0,0,1,.488.813,6.707,6.707,0,0,1,.081.853,7.485,7.485,0,0,1-.081.854,1.425,1.425,0,0,1-.488.813,2.9,2.9,0,0,1-.935.488,5.148,5.148,0,0,1-1.5.162,5.314,5.314,0,0,1-1.5-.162,1.859,1.859,0,0,1-.935-.488,1.337,1.337,0,0,1-.488-.812,6.667,6.667,0,0,1-.081-.854,7.414,7.414,0,0,1,.081-.853,1.427,1.427,0,0,1,.488-.813.564.564,0,0,1,.163-.122c.081-.041.122-.082.2-.123-.081-.041-.122-.081-.2-.122a.562.562,0,0,1-.163-.121,1.341,1.341,0,0,1-.488-.813,6.663,6.663,0,0,1-.081-.853,7.418,7.418,0,0,1,.081-.854,1.425,1.425,0,0,1,.488-.812,2.9,2.9,0,0,1,.935-.488,5.128,5.128,0,0,1,1.5-.163,5.308,5.308,0,0,1,1.5.163,1.856,1.856,0,0,1,.935.488,1.339,1.339,0,0,1,.488.813,6.718,6.718,0,0,1,.081.854,7.482,7.482,0,0,1-.081.853,1.43,1.43,0,0,1-.488.813.563.563,0,0,1-.163.121c-.081.041-.122.081-.2.122.081.041.122.082.2.123A.556.556,0,0,1,637.746,1925.771Zm-4.389-3.211a.847.847,0,0,0-.244.407,2.9,2.9,0,0,0-.081.691,3.209,3.209,0,0,0,.081.691.77.77,0,0,0,.244.406,1.524,1.524,0,0,0,.732.325,6.137,6.137,0,0,0,2.438,0,1.523,1.523,0,0,0,.732-.325.843.843,0,0,0,.244-.406,2.909,2.909,0,0,0,.081-.691,3.206,3.206,0,0,0-.081-.691.774.774,0,0,0-.244-.407,1.526,1.526,0,0,0-.732-.325,6.137,6.137,0,0,0-2.438,0A1.526,1.526,0,0,0,633.357,1922.56Zm3.9,5.974a.845.845,0,0,0,.244-.406,2.91,2.91,0,0,0,.081-.691,3.217,3.217,0,0,0-.081-.691.771.771,0,0,0-.244-.406,1.525,1.525,0,0,0-.732-.325,6.137,6.137,0,0,0-2.438,0,1.525,1.525,0,0,0-.732.325.844.844,0,0,0-.244.406,2.912,2.912,0,0,0-.081.691,3.211,3.211,0,0,0,.081.691.772.772,0,0,0,.244.406,1.537,1.537,0,0,0,.732.325,6.149,6.149,0,0,0,2.438,0A1.536,1.536,0,0,0,637.258,1928.534Z" transform="translate(-598.416 -1921.26)"/>
          <path id="Path_951" data-name="Path 951" d="M661.751,1929.813h-.081a.125.125,0,0,1-.081-.04.492.492,0,0,1-.2-.2.346.346,0,0,1,0-.284l3.536-7.072h-4.714a.406.406,0,0,1,0-.813h5.365a.366.366,0,0,1,.2.041q.122.061.122.122a.306.306,0,0,1,.041.2.365.365,0,0,1-.041.2l-3.82,7.641a.318.318,0,0,1-.162.163A.245.245,0,0,1,661.751,1929.813Z" transform="translate(-614.74 -1921.318)"/>
          <path id="Path_952" data-name="Path 952" d="M693.246,1925.771a1.34,1.34,0,0,1,.488.813,6.652,6.652,0,0,1,.081.853,7.416,7.416,0,0,1-.081.854,1.423,1.423,0,0,1-.488.813,2.9,2.9,0,0,1-.935.488,5.146,5.146,0,0,1-1.5.162,5.315,5.315,0,0,1-1.5-.162,1.859,1.859,0,0,1-.935-.488,1.337,1.337,0,0,1-.488-.812,6.666,6.666,0,0,1-.081-.854,7.413,7.413,0,0,1,.081-.853,1.426,1.426,0,0,1,.488-.813.562.562,0,0,1,.163-.122c.081-.041.122-.082.2-.123-.081-.041-.122-.081-.2-.122a.561.561,0,0,1-.163-.121,1.341,1.341,0,0,1-.488-.813,6.663,6.663,0,0,1-.081-.853,7.416,7.416,0,0,1,.081-.854,1.425,1.425,0,0,1,.488-.812,2.9,2.9,0,0,1,.935-.488,5.129,5.129,0,0,1,1.5-.163,5.305,5.305,0,0,1,1.5.163,1.857,1.857,0,0,1,.935.488,1.338,1.338,0,0,1,.488.813,6.662,6.662,0,0,1,.081.854,7.413,7.413,0,0,1-.081.853,1.428,1.428,0,0,1-.488.813.56.56,0,0,1-.163.121c-.081.041-.122.081-.2.122.081.041.122.082.2.123A.553.553,0,0,1,693.246,1925.771Zm-4.389-3.211a.844.844,0,0,0-.244.407,2.908,2.908,0,0,0-.081.691,3.213,3.213,0,0,0,.081.691.769.769,0,0,0,.244.406,1.524,1.524,0,0,0,.732.325,6.138,6.138,0,0,0,2.438,0,1.523,1.523,0,0,0,.731-.325.842.842,0,0,0,.244-.406,2.912,2.912,0,0,0,.081-.691,3.21,3.21,0,0,0-.081-.691.772.772,0,0,0-.244-.407,1.526,1.526,0,0,0-.731-.325,6.138,6.138,0,0,0-2.438,0A1.526,1.526,0,0,0,688.857,1922.56Zm3.9,5.974a.843.843,0,0,0,.244-.406,2.914,2.914,0,0,0,.081-.691,3.221,3.221,0,0,0-.081-.691.769.769,0,0,0-.244-.406,1.525,1.525,0,0,0-.731-.325,6.138,6.138,0,0,0-2.438,0,1.525,1.525,0,0,0-.732.325.841.841,0,0,0-.244.406,2.919,2.919,0,0,0-.081.691,3.215,3.215,0,0,0,.081.691.771.771,0,0,0,.244.406,1.536,1.536,0,0,0,.732.325,6.15,6.15,0,0,0,2.438,0A1.536,1.536,0,0,0,692.758,1928.534Z" transform="translate(-631.361 -1921.26)"/>
          <path id="Path_953" data-name="Path 953" d="M718.854,1929.813a5.337,5.337,0,0,1-2.357-.406c-.569-.285-.894-.406-.894-.406a.855.855,0,0,1-.162-.244.357.357,0,0,1,.041-.285.844.844,0,0,1,.244-.163.357.357,0,0,1,.284.041,2.119,2.119,0,0,1,.2.122,2.631,2.631,0,0,0,.569.244,7.86,7.86,0,0,0,.854.244,5.356,5.356,0,0,0,1.219.122,4.594,4.594,0,0,0,1.382-.162,2.307,2.307,0,0,0,.894-.447.93.93,0,0,0,.284-.406,2.056,2.056,0,0,0,.081-.529.738.738,0,0,0-.244-.569,1.689,1.689,0,0,0-.487-.325c-.285-.122-.569-.244-.935-.366a10.891,10.891,0,0,0-1.1-.284c-.366-.081-.772-.2-1.138-.284a3.8,3.8,0,0,1-1.016-.407,2.722,2.722,0,0,1-.894-.691,1.383,1.383,0,0,1-.285-.894,1.885,1.885,0,0,1,.163-.853,2.679,2.679,0,0,1,.488-.691,2.723,2.723,0,0,1,1.138-.569,6.672,6.672,0,0,1,1.666-.2,5.341,5.341,0,0,1,2.357.406c.569.285.894.406.894.406a.855.855,0,0,1,.163.244.358.358,0,0,1-.04.285.847.847,0,0,1-.244.162.358.358,0,0,1-.284-.04,4.081,4.081,0,0,0-.731-.366,7.909,7.909,0,0,0-.854-.244,5.4,5.4,0,0,0-1.219-.121,4.592,4.592,0,0,0-1.382.162,2.3,2.3,0,0,0-.894.447.931.931,0,0,0-.285.406,2.071,2.071,0,0,0-.081.529.737.737,0,0,0,.244.569,1.7,1.7,0,0,0,.488.325c.284.122.569.244.935.366a10.819,10.819,0,0,0,1.1.284c.366.081.772.2,1.138.285a3.783,3.783,0,0,1,1.016.406,2.734,2.734,0,0,1,.894.691,1.387,1.387,0,0,1,.285.895,1.882,1.882,0,0,1-.163.853,2.667,2.667,0,0,1-.488.691,2.723,2.723,0,0,1-1.138.568A7.263,7.263,0,0,1,718.854,1929.813Z" transform="translate(-647.744 -1921.319)"/>
          <path id="Path_954" data-name="Path 954" d="M748.089,1929.753h-2.682a.417.417,0,0,1-.406-.406v-7.64a.416.416,0,0,1,.406-.406h2.682a5.866,5.866,0,0,1,1.828.244,2.721,2.721,0,0,1,1.179.772,3.042,3.042,0,0,1,.609,1.26,8.051,8.051,0,0,1,.2,1.91,6.329,6.329,0,0,1-.244,1.87,3.114,3.114,0,0,1-.732,1.3,3.289,3.289,0,0,1-1.178.772A5.045,5.045,0,0,1,748.089,1929.753Zm-2.317-.772h2.276a4.7,4.7,0,0,0,1.382-.2,1.886,1.886,0,0,0,.935-.609,2.63,2.63,0,0,0,.569-1.057,6.009,6.009,0,0,0,.2-1.585,6.07,6.07,0,0,0-.163-1.625,2.372,2.372,0,0,0-.488-1.016,3.107,3.107,0,0,0-.732-.528,3.682,3.682,0,0,0-1.707-.244h-2.276Z" transform="translate(-665.315 -1921.26)"/>
          <path id="Path_955" data-name="Path 955" d="M776.646,1929.872a2.664,2.664,0,0,1-1.016-.2,1.841,1.841,0,0,1-.772-.61.251.251,0,0,1-.081-.284c.041-.122.041-.2.122-.244a.344.344,0,0,1,.285-.081.246.246,0,0,1,.244.122,1.674,1.674,0,0,0,.528.406,1.9,1.9,0,0,0,.691.122,2.5,2.5,0,0,0,1.1-.2,1.11,1.11,0,0,0,.447-.406,2.807,2.807,0,0,0,.284-.772,5.578,5.578,0,0,0,.081-1.26v-4.552a.406.406,0,0,1,.813,0v4.552a7.579,7.579,0,0,1-.122,1.463,2.715,2.715,0,0,1-.366.975,1.881,1.881,0,0,1-.854.731A3.492,3.492,0,0,1,776.646,1929.872Z" transform="translate(-682.981 -1921.378)"/>
          <path id="Path_956" data-name="Path 956" d="M804.246,1925.771a1.341,1.341,0,0,1,.488.813,6.685,6.685,0,0,1,.081.853,7.458,7.458,0,0,1-.081.854,1.425,1.425,0,0,1-.488.813,2.9,2.9,0,0,1-.935.488,5.147,5.147,0,0,1-1.5.162,5.316,5.316,0,0,1-1.5-.162,1.859,1.859,0,0,1-.935-.488,1.337,1.337,0,0,1-.488-.812,6.665,6.665,0,0,1-.081-.854,7.411,7.411,0,0,1,.081-.853,1.426,1.426,0,0,1,.488-.813.561.561,0,0,1,.163-.122c.081-.041.122-.082.2-.123-.081-.041-.122-.081-.2-.122a.558.558,0,0,1-.163-.121,1.341,1.341,0,0,1-.488-.813,6.662,6.662,0,0,1-.081-.853,7.415,7.415,0,0,1,.081-.854,1.425,1.425,0,0,1,.488-.812,2.9,2.9,0,0,1,.935-.488,5.129,5.129,0,0,1,1.5-.163,5.306,5.306,0,0,1,1.5.163,1.857,1.857,0,0,1,.935.488,1.339,1.339,0,0,1,.488.813,6.7,6.7,0,0,1,.081.854,7.455,7.455,0,0,1-.081.853,1.43,1.43,0,0,1-.488.813.562.562,0,0,1-.163.121c-.081.041-.122.081-.2.122.081.041.122.082.2.123A.556.556,0,0,1,804.246,1925.771Zm-4.389-3.211a.844.844,0,0,0-.244.407,2.908,2.908,0,0,0-.081.691,3.217,3.217,0,0,0,.081.691.77.77,0,0,0,.244.406,1.524,1.524,0,0,0,.732.325,6.137,6.137,0,0,0,2.438,0,1.523,1.523,0,0,0,.732-.325.841.841,0,0,0,.244-.406,2.909,2.909,0,0,0,.081-.691,3.207,3.207,0,0,0-.081-.691.772.772,0,0,0-.244-.407,1.525,1.525,0,0,0-.732-.325,6.137,6.137,0,0,0-2.438,0A1.526,1.526,0,0,0,799.857,1922.56Zm3.9,5.974a.842.842,0,0,0,.244-.406,2.911,2.911,0,0,0,.081-.691,3.217,3.217,0,0,0-.081-.691.769.769,0,0,0-.244-.406,1.524,1.524,0,0,0-.732-.325,6.137,6.137,0,0,0-2.438,0,1.525,1.525,0,0,0-.732.325.842.842,0,0,0-.244.406,2.919,2.919,0,0,0-.081.691,3.219,3.219,0,0,0,.081.691.772.772,0,0,0,.244.406,1.537,1.537,0,0,0,.732.325,6.149,6.149,0,0,0,2.438,0A1.536,1.536,0,0,0,803.758,1928.534Z" transform="translate(-697.25 -1921.26)"/>
          <path id="Path_957" data-name="Path 957" d="M831.887,1921.932a1.338,1.338,0,0,1,.488.813,6.7,6.7,0,0,1,.081.853v3.82a7.464,7.464,0,0,1-.081.854,1.427,1.427,0,0,1-.488.813,2.9,2.9,0,0,1-.935.488,5.121,5.121,0,0,1-1.5.163,6.271,6.271,0,0,1-1.341-.122,2.811,2.811,0,0,1-.935-.366,1.769,1.769,0,0,1-.528-.569,2.38,2.38,0,0,1-.244-.813.343.343,0,0,1,.081-.284.857.857,0,0,1,.244-.163.586.586,0,0,1,.284.082.289.289,0,0,1,.122.244,1.478,1.478,0,0,0,.366.772c.244.285.853.406,1.91.406a5.141,5.141,0,0,0,1.219-.122,1.536,1.536,0,0,0,.732-.325.85.85,0,0,0,.244-.407,2.935,2.935,0,0,0,.081-.691v-2.032a2.814,2.814,0,0,1-.935.365,6.289,6.289,0,0,1-1.341.122,5.319,5.319,0,0,1-1.5-.162,1.863,1.863,0,0,1-.935-.488,1.34,1.34,0,0,1-.488-.813,6.67,6.67,0,0,1-.081-.853,7.425,7.425,0,0,1,.081-.854,1.427,1.427,0,0,1,.488-.813,2.9,2.9,0,0,1,.935-.487,5.124,5.124,0,0,1,1.5-.163,5.291,5.291,0,0,1,1.5.163A2.069,2.069,0,0,1,831.887,1921.932Zm-.488,2.763a.84.84,0,0,0,.244-.407,2.907,2.907,0,0,0,.081-.691,3.211,3.211,0,0,0-.081-.691.773.773,0,0,0-.244-.407,1.535,1.535,0,0,0-.732-.325,6.156,6.156,0,0,0-2.438,0,1.534,1.534,0,0,0-.731.325.844.844,0,0,0-.244.407,2.912,2.912,0,0,0-.081.691,3.213,3.213,0,0,0,.081.691.772.772,0,0,0,.244.407,1.526,1.526,0,0,0,.731.325,6.132,6.132,0,0,0,2.438,0A2.052,2.052,0,0,0,831.4,1924.7Z" transform="translate(-713.634 -1921.2)"/>
          <path id="Path_958" data-name="Path 958" d="M856.051,1929.813h-.081a.126.126,0,0,1-.081-.04.493.493,0,0,1-.2-.2.349.349,0,0,1,0-.284l3.536-7.072h-4.714a.406.406,0,0,1,0-.813h5.324a.366.366,0,0,1,.2.041q.122.061.122.122a.307.307,0,0,1,.04.2.367.367,0,0,1-.04.2l-3.82,7.641a.318.318,0,0,1-.163.163C856.092,1929.813,856.092,1929.813,856.051,1929.813Z" transform="translate(-730.076 -1921.318)"/>
          <path id="Path_959" data-name="Path 959" d="M883.751,1929.813h-.081a.127.127,0,0,1-.081-.04.493.493,0,0,1-.2-.2.348.348,0,0,1,0-.284l3.536-7.072h-4.714a.406.406,0,0,1,0-.813h5.365a.365.365,0,0,1,.2.041c.081.041.122.081.122.122a.305.305,0,0,1,.041.2.364.364,0,0,1-.041.2l-3.82,7.641a.318.318,0,0,1-.163.163A.246.246,0,0,1,883.751,1929.813Z" transform="translate(-746.519 -1921.318)"/>
          <path id="Path_960" data-name="Path 960" d="M915.246,1925.771a1.341,1.341,0,0,1,.488.813,6.717,6.717,0,0,1,.081.853,7.5,7.5,0,0,1-.081.854,1.423,1.423,0,0,1-.488.813,2.889,2.889,0,0,1-.934.488,5.148,5.148,0,0,1-1.5.162,5.317,5.317,0,0,1-1.5-.162,1.857,1.857,0,0,1-.934-.488,1.337,1.337,0,0,1-.488-.812,6.72,6.72,0,0,1-.081-.854,7.479,7.479,0,0,1,.081-.853,1.426,1.426,0,0,1,.488-.813.558.558,0,0,1,.163-.122c.081-.041.122-.082.2-.123-.081-.041-.122-.081-.2-.122a.556.556,0,0,1-.163-.121,1.341,1.341,0,0,1-.488-.813,6.717,6.717,0,0,1-.081-.853,7.482,7.482,0,0,1,.081-.854,1.425,1.425,0,0,1,.488-.812,2.891,2.891,0,0,1,.934-.488,5.13,5.13,0,0,1,1.5-.163,5.307,5.307,0,0,1,1.5.163,1.856,1.856,0,0,1,.934.488,1.339,1.339,0,0,1,.488.813,6.728,6.728,0,0,1,.081.854,7.493,7.493,0,0,1-.081.853,1.429,1.429,0,0,1-.488.813.559.559,0,0,1-.162.121c-.081.041-.122.081-.2.122.081.041.122.082.2.123A.553.553,0,0,1,915.246,1925.771Zm-4.389-3.211a.844.844,0,0,0-.244.407,2.908,2.908,0,0,0-.081.691,3.217,3.217,0,0,0,.081.691.77.77,0,0,0,.244.406,1.524,1.524,0,0,0,.732.325,6.138,6.138,0,0,0,2.439,0,1.523,1.523,0,0,0,.732-.325.842.842,0,0,0,.244-.406,2.9,2.9,0,0,0,.081-.691,3.2,3.2,0,0,0-.081-.691.773.773,0,0,0-.244-.407,1.526,1.526,0,0,0-.732-.325,6.138,6.138,0,0,0-2.439,0A1.527,1.527,0,0,0,910.857,1922.56Zm3.9,5.974a.843.843,0,0,0,.244-.406,2.907,2.907,0,0,0,.081-.691,3.213,3.213,0,0,0-.081-.691.77.77,0,0,0-.244-.406,1.525,1.525,0,0,0-.732-.325,6.138,6.138,0,0,0-2.439,0,1.526,1.526,0,0,0-.732.325.841.841,0,0,0-.244.406,2.919,2.919,0,0,0-.081.691,3.219,3.219,0,0,0,.081.691.772.772,0,0,0,.244.406,1.537,1.537,0,0,0,.732.325,6.151,6.151,0,0,0,2.439,0A1.536,1.536,0,0,0,914.758,1928.534Z" transform="translate(-763.14 -1921.26)"/>
        </g>
        <path id="Path_961" data-name="Path 961" d="M583.569,1930.677H545.977a4.891,4.891,0,0,1-4.877-4.877v-12.924a4.891,4.891,0,0,1,4.877-4.877h37.592a4.891,4.891,0,0,1,4.877,4.877v12.964A4.883,4.883,0,0,1,583.569,1930.677Z" transform="translate(-414.384 -1870.07)" fill="#fff"/>
        <g id="Group_391" data-name="Group 391" transform="translate(130.343 41.954)">
          <path id="Path_962" data-name="Path 962" d="M555.217,1930.732a.771.771,0,0,1-.325-.081,1.082,1.082,0,0,1-.2-.244l-4.633-11.623a.83.83,0,0,1,0-.447.635.635,0,0,1,.325-.325.832.832,0,0,1,.447,0,.635.635,0,0,1,.325.325l4.1,10.282,4.1-10.282c.041-.162.163-.244.325-.325a.44.44,0,0,1,.447,0c.163.041.244.163.325.325a.44.44,0,0,1,0,.447l-4.633,11.623a.419.419,0,0,1-.2.244A1.8,1.8,0,0,1,555.217,1930.732Z" transform="translate(-550.025 -1917.93)"/>
          <path id="Path_963" data-name="Path 963" d="M598.026,1930.7a4.091,4.091,0,0,1-1.585-.325,3.628,3.628,0,0,1-1.178-.894.523.523,0,0,1-.163-.406.564.564,0,0,1,.2-.406.818.818,0,0,1,.447-.122.427.427,0,0,1,.366.2,2.384,2.384,0,0,0,.813.61,2.933,2.933,0,0,0,1.1.2,3.319,3.319,0,0,0,1.666-.325,2.153,2.153,0,0,0,.691-.65,3.491,3.491,0,0,0,.447-1.219,12.183,12.183,0,0,0,.122-1.91v-6.99a.569.569,0,1,1,1.138,0v6.99a11.691,11.691,0,0,1-.163,2.235,5.041,5.041,0,0,1-.569,1.5,2.926,2.926,0,0,1-1.3,1.138A5.188,5.188,0,0,1,598.026,1930.7Z" transform="translate(-576.781 -1917.9)"/>
        </g>
        <path id="Search" d="M458.715,1907.544l19.385-26.863a35.46,35.46,0,1,0-16.988-24.832,35.077,35.077,0,0,0,11.786,21.092l-19.385,26.863a3.228,3.228,0,0,0-.569,2.4,3.191,3.191,0,0,0,5.771,1.341Zm32.756-86.076a29.047,29.047,0,1,1-24.018,33.325,29.081,29.081,0,0,1,24.018-33.325Z" transform="translate(-362.032 -1814.668)" fill="#010101"/>
        <g id="Group_392" data-name="Group 392" transform="translate(0 41.654)">
          <path id="Path_964" data-name="Path 964" d="M358.14,2471.369l2.113-25.969H350.5l3.333,25.969Z" transform="translate(-301.244 -2230.723)" fill="#f7a19f"/>
          <rect id="Rectangle_192" data-name="Rectangle 192" width="20.727" height="1.991" transform="translate(49.824 246.133)" fill="#fbc4af"/>
          <path id="Path_965" data-name="Path 965" d="M355.243,2507.8s-2.073.854-1.951,6.1H372.84v-1.26a2.085,2.085,0,0,0-1.544-1.992l-11.013-2.845Z" transform="translate(-302.899 -2267.764)" fill="#8984bf"/>
          <path id="Path_966" data-name="Path 966" d="M305.348,2165.763l16.988,110.216a3.419,3.419,0,0,0,3.414,2.927h2.682a3.468,3.468,0,0,0,3.454-3.252c1.951-29.464,4.714-104.16,4.308-114.646-.528-14.183-6.462-28.406-6.462-28.406a276.64,276.64,0,0,1-27.839,0c-.447,5.648,1.3,16.134,1.463,22.88C303.478,2161.414,304.779,2160.723,305.348,2165.763Z" transform="translate(-272.348 -2045.047)" fill="#2e3690"/>
          <path id="Path_967" data-name="Path 967" d="M365.041,2144.6c-1.91.325-4.308,1.057-5.73,3.008-2.032,2.8-.772,6.218,1.544,16.5,1.3,5.812,1.951,8.7,2.479,12.477a93.814,93.814,0,0,1,1.016,16.175v.406c-.122,3.251-.691,22.23-.528,28.448,0,.244.041,1.179.041,2.479.163,10.079-.366,12.274-1.179,31.131-.325,7.234-.691,17.8-.935,30.805h.2a3.468,3.468,0,0,0,3.454-3.251c1.951-29.464,4.714-104.161,4.308-114.646A90.456,90.456,0,0,0,365.041,2144.6Z" transform="translate(-305.869 -2052.169)" fill="#181244"/>
          <path id="Path_968" data-name="Path 968" d="M480.642,2001.023c-.488-4.1-.163-5.121.244-5.243.569-.163,1.951,1.179,1.829,2.8A2.868,2.868,0,0,1,480.642,2001.023Z" transform="translate(-378.351 -1963.822)" fill="#f69b99"/>
          <path id="Path_969" data-name="Path 969" d="M378.338,2012.2a26.756,26.756,0,0,0-3.373,2.926c-4.023-5-7.112-8.941-8.9-11.258-.488-.61-7.031-9.063-13.615-12.6-1.3-.691-2.723-1.26-3.617-.65-1.1.772-.772,2.966-.691,3.332,0,0,8.412,24.791,19.954,31.049,3.17,1.707,7.275.61,11.623-1.87A29.669,29.669,0,0,0,378.338,2012.2Z" transform="translate(-299.781 -1960.614)" fill="#f69b99"/>
          <path id="Path_970" data-name="Path 970" d="M443.315,2017.434c.935-1.057,1.707-1.991,2.357-2.764a2.188,2.188,0,0,0,.284-.366c.854-1.057,1.341-1.666,1.341-1.666l-1.5-.366-3.048-.773s-8.9,4.918-16.215,9.713a3.355,3.355,0,0,1-.488.325q-1.036.671-1.951,1.341-1.829,1.281-3.292,2.439c.2,2.154.61,4.43,1.057,6.706.244,1.341.569,2.6.894,3.779,6.584-3.739,13.7-10.77,18.573-16.134C442.014,2018.938,442.705,2018.165,443.315,2017.434Z" transform="translate(-342.974 -1973.161)" fill="#f69b99"/>
          <path id="Path_971" data-name="Path 971" d="M477.645,2003.8l1.91-1.951s3.82-1.951,3.536-3.211a5.271,5.271,0,0,0-1.341-2.275s3.658-2.4,2.886-3.292c-.732-.894-3.983,2.235-3.983,2.235l-5.852,5.2Z" transform="translate(-375.029 -1962.123)" fill="#f69b99"/>
          <path id="Path_972" data-name="Path 972" d="M256.451,2471.369,253.2,2445.4h9.144l-1.626,25.969Z" transform="translate(-243.487 -2230.723)" fill="#f7a19f"/>
          <path id="Path_973" data-name="Path 973" d="M245.272,2019.2a11.53,11.53,0,0,1-8.656,3.861,13.405,13.405,0,0,1-2.6-.284c-3.454,12.843-6.949,35.154-2.885,66.406l4.023.163c.528-5.65,1.138-11.379,1.788-17.192.813-7.234,1.748-14.305,2.723-21.214Q242.468,2035.03,245.272,2019.2Z" transform="translate(-229.301 -1977.732)" fill="#f69b99"/>
          <path id="Path_974" data-name="Path 974" d="M232.75,2184.5l.081,2.764a5.867,5.867,0,0,0-.731,2.763,6.707,6.707,0,0,0,1.748,4.593c.813.854,2.195,1.788,2.8,1.382.65-.406.406-2.438.406-2.4h0l-.244-8.819Z" transform="translate(-230.962 -2075.853)" fill="#f69b99"/>
          <path id="Path_975" data-name="Path 975" d="M243.139,2191.7c2.642,2.479,3.048,3.332,2.845,3.658-.285.447-1.991.325-2.8-.854A2.316,2.316,0,0,1,243.139,2191.7Z" transform="translate(-237.247 -2080.127)" fill="#f69b99"/>
          <path id="Path_976" data-name="Path 976" d="M234.2,2007.849c3.9,1.016,7.844,2.032,11.745,3.007l10.973-18.9c0-2.073-.041-4.186-.041-6.258a22.589,22.589,0,0,0-8.86,3.007,25.422,25.422,0,0,0-6.5,5.689A38.882,38.882,0,0,0,234.2,2007.849Z" transform="translate(-232.209 -1957.847)" fill="#bcb3d9"/>
          <path id="Path_977" data-name="Path 977" d="M255.468,2514.629a7.5,7.5,0,0,1,1.1-3.129,6.268,6.268,0,0,0,5.974,0,5.9,5.9,0,0,1,1.26,3.251,5.277,5.277,0,0,1-.366,2.4h-7.762A8.693,8.693,0,0,1,255.468,2514.629Z" transform="translate(-244.821 -2269.96)" fill="#f1606b"/>
          <rect id="Rectangle_193" data-name="Rectangle 193" width="9.835" height="1.991" transform="translate(9.916 246.133)" fill="#fbc4af"/>
          <path id="Path_978" data-name="Path 978" d="M256.643,2507.8h5.039l.447.122c.528.366,1.829,1.707,1.748,5.974h-9.185C254.57,2508.654,256.643,2507.8,256.643,2507.8Z" transform="translate(-244.37 -2267.764)" fill="#8984bf"/>
          <path id="Path_979" data-name="Path 979" d="M249.33,2279.981l4.267-.041a1.971,1.971,0,0,0,1.951-1.707l15.525-112.411-.732-30.886L248.03,2132.7s-6.34,13.736-6.137,35.763c.081,9.429,3.9,86.686,5.405,109.688A2,2,0,0,0,249.33,2279.981Z" transform="translate(-236.773 -2045.105)" fill="#2e3690"/>
          <path id="Path_980" data-name="Path 980" d="M252.2,2136.8" transform="translate(-242.894 -2047.539)" fill="#2e2b2c"/>
          <path id="Path_981" data-name="Path 981" d="M257.1,2042.473c.2-7.641.61-15.687,1.341-24.1.813-9.428,1.951-18.369,3.251-26.822a10.526,10.526,0,0,1,9.307-8.86,98.13,98.13,0,0,0,13.574-1.991l9.632,2.723a9.156,9.156,0,0,1,4.267,2.642,9.982,9.982,0,0,1,2.276,4.47c1.788,7.4.569,28.164.935,38.649a86.562,86.562,0,0,0,1.626,13.614,112.43,112.43,0,0,1-14.752,2.032A110.741,110.741,0,0,1,257.1,2042.473Z" transform="translate(-245.802 -1954.878)" fill="#bcb3d9"/>
          <path id="Path_982" data-name="Path 982" d="M275.489,2174.282h-11.3a.712.712,0,0,1-.691-.691h0a.713.713,0,0,1,.691-.691h11.3a.713.713,0,0,1,.691.691h0A.685.685,0,0,1,275.489,2174.282Z" transform="translate(-249.601 -2068.968)" fill="#181244"/>
          <path id="Path_983" data-name="Path 983" d="M313,1933.4a8.282,8.282,0,0,1,3.17,4.877c.772,3.9-1.666,9.185-5.608,9.631-3.78.406-7.275-3.739-7.6-7.721-.284-3.536,1.91-7.641,5.161-8.209A6.568,6.568,0,0,1,313,1933.4Z" transform="translate(-273.013 -1925.904)" fill="#f7a19f"/>
          <path id="Path_984" data-name="Path 984" d="M308.054,1972.963l5.974-.082a1.512,1.512,0,0,0,1.463-1.585l-.325-7.274-8.209-.122-.366,7.478A1.463,1.463,0,0,0,308.054,1972.963Z" transform="translate(-275.176 -1944.906)" fill="#f7a19f"/>
          <path id="Path_985" data-name="Path 985" d="M308.834,1983.22a15.7,15.7,0,0,0,6.828-1.422l-3.9-1.1a63.983,63.983,0,0,1-8.86,1.463A15.771,15.771,0,0,0,308.834,1983.22Z" transform="translate(-272.989 -1954.879)" fill="#f7a19f"/>
          <path id="Path_986" data-name="Path 986" d="M294.256,2220.9c-1.463.325-4.308.122-6.665.122a9.714,9.714,0,0,1-1.991-.325" transform="translate(-262.72 -2097.342)" fill="none" stroke="#181244" stroke-linecap="round" stroke-miterlimit="10" stroke-width="5.823"/>
          <path id="Path_987" data-name="Path 987" d="M294.648,2222.5l-.081-2.8-5,.163s-1.748,36.048-4.877,51.532l-1.991,37.348Z" transform="translate(-260.999 -2096.748)" fill="#181244"/>
          <path id="Path_988" data-name="Path 988" d="M303.483,2064.038c-7.153,2.357-22.433,6.1-36.332,4.877a79.466,79.466,0,0,1-18.451-3.861c1.829-18.044,5.405-43.81,7.234-61.854,13.614,1.3,27.27,2.6,40.884,3.9q.914,14.387,2.316,29.464C299.825,2043.637,302.67,2057.292,303.483,2064.038Z" transform="translate(-240.816 -1968.234)" fill="#bcb3d9"/>
          <path id="Path_989" data-name="Path 989" d="M294.066,1937.173a3.867,3.867,0,0,1-3.251-2.845,3.4,3.4,0,0,1,.325-2.235,3.067,3.067,0,0,1-3.658-2.479,3.107,3.107,0,0,1,3.373-3.17,3.139,3.139,0,0,1-.935-3.536,3.231,3.231,0,0,1,2.4-1.829,3.67,3.67,0,0,1,1.341-2.926c1.382-.894,3.739-.406,5.08,1.585a2.773,2.773,0,0,1,.975-2.073,3,3,0,0,1,3.658.284,3.619,3.619,0,0,1,1.057,2.967,2.368,2.368,0,0,1,3.129.569,2.343,2.343,0,0,1,.041,2.154c1.1.285,2.032.935,2.113,1.707.122,1.016-1.219,2.479-3.454,2.6a2.431,2.431,0,0,1-1.179,2.194,2.689,2.689,0,0,1-3.454-1.341,2.286,2.286,0,0,1,1.951,2.032,2.258,2.258,0,0,1-1.544,2.4,2.21,2.21,0,0,1,.447,1.951,2.427,2.427,0,0,1-1.788,1.5,3.379,3.379,0,0,1-3.048-1.016A4.094,4.094,0,0,1,294.066,1937.173Z" transform="translate(-263.83 -1917.163)"/>
          <circle id="Ellipse_81" data-name="Ellipse 81" cx="1.829" cy="1.829" r="1.829" transform="matrix(0.93, -0.366, 0.366, 0.93, 38.27, 12.351)" fill="#f7a19f"/>
          <path id="Path_990" data-name="Path 990" d="M365.909,1999.435A35.743,35.743,0,0,0,351.4,1988.3a54.708,54.708,0,0,1,1.788,5.2,50.446,50.446,0,0,1,1.951,13.493l2.52,3.454Z" transform="translate(-301.779 -1959.389)" fill="#8984bf"/>
          <path id="Path_991" data-name="Path 991" d="M354.364,2038.688c-.2,3.536-.447,6.868-.61,9.916,1.991-.285,3.861-.65,5.69-1.016a86.026,86.026,0,0,1-1.626-13.614c-.366-10.486.813-31.253-.935-38.649a9.986,9.986,0,0,0-2.276-4.471,9.288,9.288,0,0,0-3.007-2.154,43.2,43.2,0,0,1,1.748,5.08c1.666,5.771,2.317,11.42,1.951,25.685C355.136,2025.8,354.851,2030.763,354.364,2038.688Z" transform="translate(-301.897 -1959.627)" fill="#8984bf"/>
          <path id="Path_992" data-name="Path 992" d="M356.56,2052.578c-.488,7.844-.935,14.59-1.26,19.751a103.712,103.712,0,0,0,11.461-3.007c-.813-6.787-3.658-20.4-4.349-27.432-.975-10.079-1.747-19.873-2.316-29.465-1.179-.122-2.357-.244-3.5-.325.853,4.674,1.138,10.566.894,21.255C357.332,2039.7,357.048,2044.653,356.56,2052.578Z" transform="translate(-304.094 -1973.517)" fill="#8984bf"/>
        </g>
      </g>
    </g>
  </g>
</svg>