<svg xmlns:mydata="http://www.w3.org/2000/svg" mydata:contrastcolor="151f42" mydata:template="Contrast" mydata:presentation="2.5" mydata:layouttype="undefined" mydata:specialfontid="undefined" mydata:id1="154" mydata:id2="196" mydata:companyname="vin check online" mydata:companytagline="" version="1.1" xmlns="http://www.w3.org/2000/svg" xmlns:xlink="http://www.w3.org/1999/xlink" style="height: 578px;" viewBox="65 202 420 66"><defs><linearGradient x1="65" y1="235" x2="485" y2="235" gradientUnits="userSpaceOnUse" id="color-16294761054"><stop offset="0" stop-color="#4568dc"/><stop offset="1" stop-color="#b06ab3"/></linearGradient></defs><g fill="url(#color-16294761054)" fill-rule="nonzero" stroke="none" stroke-width="1" stroke-linecap="butt" stroke-linejoin="miter" stroke-miterlimit="10" stroke-dasharray="" stroke-dashoffset="0" font-family="none" font-weight="none" font-size="none" text-anchor="none" style="mix-blend-mode: normal"><g data-paper-data="{&quot;isGlobalGroup&quot;:true,&quot;bounds&quot;:{&quot;x&quot;:64.99999999999997,&quot;y&quot;:202.0733783239769,&quot;width&quot;:420,&quot;height&quot;:65.8532433520462}}"><g data-paper-data="{&quot;isSecondaryText&quot;:true}" id="element-id-4125"><path d="M189.98397,255.62037c1.79239,0 3.26418,0.59746 4.41539,1.79239c1.12206,1.16578 1.68309,2.61936 1.68309,4.36074c0,1.74138 -0.56103,3.18768 -1.68309,4.33888c-1.15121,1.19492 -2.623,1.79967 -4.41539,1.81424c-1.79239,0 -3.25689,-0.60475 -4.39353,-1.81424c-1.12206,-1.16578 -1.68674,-2.61572 -1.69402,-4.34981c-0.00729,-1.7341 0.55739,-3.18403 1.69402,-4.34981c1.13663,-1.19492 2.60114,-1.79239 4.39353,-1.79239zM189.98397,266.59326c1.42808,0 2.58657,-0.46631 3.47548,-1.39893c0.84519,-0.88891 1.26778,-2.03283 1.26778,-3.43176c0,-1.38436 -0.42259,-2.52828 -1.26778,-3.43176c-0.88891,-0.93262 -2.0474,-1.39893 -3.47548,-1.39893c-1.42808,0 -2.57929,0.46631 -3.45362,1.39893c-0.84519,0.88891 -1.26778,2.03283 -1.26778,3.43176c0,1.38436 0.42259,2.52828 1.26778,3.43176c0.87433,0.93262 2.02554,1.39893 3.45362,1.39893z" data-paper-data="{&quot;glyphName&quot;:&quot;O&quot;,&quot;glyphIndex&quot;:0,&quot;firstGlyphOfWord&quot;:true,&quot;word&quot;:1}" id="element-id-98190"/><path d="M236.38185,255.77338v12.00024h-1.5738l-7.43184,-10.14228v10.14228h-1.35522v-12.00024h1.5738l7.43184,10.09856v-10.09856z" data-paper-data="{&quot;glyphName&quot;:&quot;N&quot;,&quot;glyphIndex&quot;:1,&quot;word&quot;:1}" id="element-id-74162"/><path d="M266.52903,255.77338v10.68874h6.55751v1.3115h-7.91272v-12.00024z" data-paper-data="{&quot;glyphName&quot;:&quot;L&quot;,&quot;glyphIndex&quot;:2,&quot;word&quot;:1}" id="element-id-92060"/><path d="M294.13294,267.77361h-1.35522v-12.00024h1.35522z" data-paper-data="{&quot;glyphName&quot;:&quot;I&quot;,&quot;glyphIndex&quot;:3,&quot;word&quot;:1}" id="element-id-51836"/><path d="M328.71629,255.77338v12.00024h-1.5738l-7.43184,-10.14228v10.14228h-1.35522v-12.00024h1.5738l7.43184,10.09856v-10.09856z" data-paper-data="{&quot;glyphName&quot;:&quot;N&quot;,&quot;glyphIndex&quot;:4,&quot;word&quot;:1}" id="element-id-17991"/><path d="M359.5032,257.06302v4.0438h6.68866v1.3115h-6.68866v4.0438h7.47556v1.3115h-8.83078v-12.00024h8.83078v1.28964z" data-paper-data="{&quot;glyphName&quot;:&quot;E&quot;,&quot;glyphIndex&quot;:5,&quot;lastGlyphOfWord&quot;:true,&quot;word&quot;:1}" id="element-id-64905"/></g><g data-paper-data="{&quot;isPrimaryText&quot;:true}" id="element-id-1255"><path d="M191.53988,243.71705c-0.10023,0.15034 -0.4009,0.45101 -0.90203,0.90203c-0.50113,0.4009 -1.3781,0.60135 -2.63092,0.60135c-1.25282,0 -2.12979,-0.20045 -2.63092,-0.60135c-0.50113,-0.4009 -0.8018,-0.70158 -0.90203,-0.90203c-3.70834,-9.22074 -9.27085,-23.07691 -16.68754,-41.56851c1.35304,0 3.35755,0 6.01353,0c1.05237,2.60586 2.60586,6.51465 4.66048,11.72638c0.45101,1.05237 1.07742,2.65597 1.87923,4.81082c0.95214,2.30519 2.33024,5.78802 4.1343,10.4485c0.10023,0.25056 0.20045,0.50113 0.30068,0.75169c0.10023,0.25056 0.20045,0.50113 0.30068,0.75169c0.30068,0.70158 0.65147,1.27787 1.05237,1.72889c0.45101,0.45101 1.02731,0.67652 1.72889,0.67652c0.70158,0 1.25282,-0.20045 1.65372,-0.60135c0.35079,-0.4009 0.67652,-0.92709 0.9772,-1.57855c0.10023,-0.30068 0.20045,-0.60135 0.30068,-0.90203c0.10023,-0.25056 0.20045,-0.52618 0.30068,-0.82686c0.4009,-1.05237 0.75169,-1.9544 1.05237,-2.70609c0.30068,-0.8018 0.55124,-1.47833 0.75169,-2.02957c0.85192,-2.30519 1.30293,-3.48283 1.35304,-3.53295c0,-0.05011 0.27562,-0.77675 0.82686,-2.1799c0.4009,-1.05237 1.00225,-2.65597 1.80406,-4.81082c1.00225,-2.60586 2.50564,-6.51465 4.51015,-11.72638c1.35304,0 3.40767,0 6.16387,0c-3.50789,9.12052 -8.76973,22.77623 -15.78551,40.96715c-0.05011,0.05011 -0.10023,0.15034 -0.15034,0.30068c0,0.05011 -0.02506,0.15034 -0.07517,0.30068z" data-paper-data="{&quot;glyphName&quot;:&quot;V&quot;,&quot;glyphIndex&quot;:0,&quot;firstGlyphOfWord&quot;:true,&quot;word&quot;:1}" id="element-id-21123"/><path d="M219.05176,218.3099c0,1.60361 0,4.86093 0,9.77198c0,2.00451 0,6.03858 0,12.10222c0,1.15259 0,2.88148 0,5.18667c-1.30293,0 -3.25733,0 -5.86319,0c0,-5.21172 0,-13.05437 0,-23.52792c0,-4.35981 0,-10.89952 0,-19.61913c1.30293,0 3.25733,0 5.86319,0c0,2.10473 0,3.20721 0,3.30744c0,0.10023 0,1.90428 0,5.41217c0,0.85192 0,1.87923 0,3.08193c0,1.20271 0,2.60586 0,4.20947c0,0 0,0.02506 0,0.07517z" data-paper-data="{&quot;glyphName&quot;:&quot;I&quot;,&quot;glyphIndex&quot;:1,&quot;word&quot;:1}" id="element-id-61738"/><path d="M260.99611,202.14855c-1.20271,0 -3.03182,0 -5.48734,0c0,0 -0.02506,0 -0.07517,0c0,5.86319 0,14.63292 0,26.30918c-0.05011,0.60135 -0.30068,1.12754 -0.75169,1.57855c-0.45101,0.45101 -1.00225,0.67652 -1.65372,0.67652c-0.45101,0 -0.85192,-0.10023 -1.20271,-0.30068c-0.4009,-0.25056 -0.70158,-0.52618 -0.90203,-0.82686c-1.60361,-2.55575 -2.98171,-4.78577 -4.1343,-6.69005c-1.20271,-1.85417 -2.23002,-3.48283 -3.08193,-4.88599c-0.70158,-1.10248 -1.30293,-2.05462 -1.80406,-2.85643c-0.50113,-0.85192 -0.95214,-1.57855 -1.35304,-2.1799c-1.50338,-2.40541 -2.3553,-3.78351 -2.55575,-4.1343c-0.25056,-0.35079 -1.20271,-1.87923 -2.85643,-4.58531c0,0 0,-0.02506 0,-0.07517c-0.4009,-0.60135 -0.92709,-1.07742 -1.57855,-1.42821c-0.65147,-0.4009 -1.35304,-0.60135 -2.10473,-0.60135c-1.20271,0 -2.23002,0.42596 -3.08193,1.27787c-0.8018,0.85192 -1.22776,1.85417 -1.27787,3.00676c0,0.05011 0,0.07517 0,0.07517c0,0.05011 0,0.07517 0,0.07517c0,0.95214 0,1.90428 0,2.85643c0,2.70609 0,5.13655 0,7.2914c0,2.90654 0,5.41217 0,7.51691c0,1.65372 0,3.13205 0,4.43498c0,1.25282 0,2.33024 0,3.23227c0,2.95665 0,4.78577 0,5.48734c0,0.75169 0,2.10473 0,4.05913c0,0.45101 0,1.00225 0,1.65372c0,0.60135 0,1.32799 0,2.1799c1.25282,0 3.10699,0 5.56251,0c0,-5.86319 0,-14.65797 0,-26.38435c0,-0.65147 0.25056,-1.22776 0.75169,-1.72889c0.45101,-0.50113 1.02731,-0.75169 1.72889,-0.75169c0.45101,0 0.85192,0.12528 1.20271,0.37585c0.35079,0.20045 0.65147,0.47607 0.90203,0.82686c2.70609,4.35981 6.79027,10.89952 12.25256,19.61913c0.8018,1.30293 1.97945,3.28238 3.53295,5.93836c0,0 0,0.02506 0,0.07517c0.4009,0.60135 0.90203,1.07742 1.50338,1.42821c0.65147,0.4009 1.3781,0.60135 2.1799,0.60135c1.20271,0 2.20496,-0.42596 3.00676,-1.27787c0.85192,-0.85192 1.27787,-1.85417 1.27787,-3.00676c0,0 0,-0.02506 0,-0.07517c0,0 0,-0.02506 0,-0.07517c0,-0.10023 0,-0.15034 0,-0.15034c0,0 0,-0.02506 0,-0.07517c0,-0.05011 0,-0.07517 0,-0.07517c0,-3.80857 0,-7.14106 0,-9.99749c0,-2.90654 0,-5.41217 0,-7.51691c0,-1.65372 0,-3.10699 0,-4.35981c0,-1.25282 0,-2.33024 0,-3.23227c0,-2.95665 0,-4.78577 0,-5.48734c0,-0.70158 0,-2.02957 0,-3.98396c0,-0.50113 0,-1.05237 0,-1.65372c0,-0.60135 0,-1.32799 0,-2.1799z" data-paper-data="{&quot;glyphName&quot;:&quot;N&quot;,&quot;glyphIndex&quot;:2,&quot;lastGlyphOfWord&quot;:true,&quot;word&quot;:1}" id="element-id-76557"/><path d="M312.48694,207.26005c1.20271,0 2.23002,0 3.08193,0c0.85192,0 1.60361,0 2.25507,0c2.55575,0 3.85868,0 3.90879,0c0.10023,0 0.92709,0 2.48058,0c0,-1.10248 0,-2.80631 0,-5.1115c-2.60586,0 -6.51465,0 -11.72638,0c-2.00451,0.05011 -3.93385,0.22551 -5.78802,0.52618c-1.80406,0.30068 -3.50789,0.82686 -5.1115,1.57855c-2.95665,1.40316 -5.33701,3.65823 -7.14106,6.76522c-1.80406,3.10699 -2.70609,7.39163 -2.70609,12.85391c0,2.90654 0.27562,5.48734 0.82686,7.74242c0.50113,2.20496 1.25282,4.10924 2.25507,5.71285c1.80406,2.95665 4.25958,5.01127 7.36657,6.16387c3.10699,1.15259 6.4896,1.72889 10.14783,1.72889c0,0.05011 0,0.07517 0,0.07517c2.65597,0 6.61488,0 11.87672,0c0,-1.15259 0,-2.88148 0,-5.18667c-2.60586,0 -6.51465,0 -11.72638,0c-2.90654,0 -5.43723,-0.37585 -7.59208,-1.12754c-2.20496,-0.75169 -3.90879,-2.23002 -5.1115,-4.43498c-0.65147,-1.20271 -1.12754,-2.68103 -1.42821,-4.43498c-0.35079,-1.70383 -0.52618,-3.7334 -0.52618,-6.0887c0,-6.86544 1.30293,-11.37559 3.90879,-13.53044c2.60586,-2.15485 6.18892,-3.23227 10.74918,-3.23227z" data-paper-data="{&quot;glyphName&quot;:&quot;C&quot;,&quot;glyphIndex&quot;:3,&quot;firstGlyphOfWord&quot;:true,&quot;word&quot;:2}" id="element-id-20762"/><path d="M360.14414,218.15956c0,0.70158 -0.25056,1.30293 -0.75169,1.80406c-0.50113,0.45101 -1.10248,0.67652 -1.80406,0.67652c0,0.05011 0,0.07517 0,0.07517c-3.90879,0 -9.72187,0 -17.43923,0c0,0 0,-0.02506 0,-0.07517c-0.75169,0 -1.3781,-0.25056 -1.87923,-0.75169c-0.50113,-0.50113 -0.75169,-1.10248 -0.75169,-1.80406c0,-1.60361 0,-2.98171 0,-4.1343c0,-1.20271 0,-2.25507 0,-3.1571c0,-3.50789 0,-5.31195 0,-5.41217c0,-0.05011 0,-1.15259 0,-3.30744c-1.30293,0 -3.25733,0 -5.86319,0c0,2.40541 0,5.13655 0,8.19343c0,8.97018 0,20.64644 0,35.0288c1.30293,0 3.25733,0 5.86319,0c0,-3.85868 0,-9.6467 0,-17.36406c0.05011,-0.65147 0.32573,-1.22776 0.82686,-1.72889c0.50113,-0.50113 1.07742,-0.75169 1.72889,-0.75169c3.90879,0 9.74693,0 17.5144,0c0.70158,0 1.30293,0.25056 1.80406,0.75169c0.50113,0.50113 0.75169,1.10248 0.75169,1.80406c0,1.75395 0,3.25733 0,4.51015c0,1.30293 0,2.43047 0,3.38261c0,3.75845 0,5.68779 0,5.78802c0,0.10023 0,1.30293 0,3.60812c1.30293,0 3.28238,0 5.93836,0c0,-9.62164 0,-24.02905 0,-43.22223c-1.35304,0 -3.3325,0 -5.93836,0c0,3.558 0,8.92007 0,16.08619z" data-paper-data="{&quot;glyphName&quot;:&quot;H&quot;,&quot;glyphIndex&quot;:4,&quot;word&quot;:2}" id="element-id-67998"/><path d="M402.68985,220.71531c0,1.05237 0,2.65597 0,4.81082c-3.65823,0 -9.12052,0 -16.38686,0c0,-1.05237 0,-2.65597 0,-4.81082c3.60812,0 9.0704,0 16.38686,0zM393.66956,207.26005c1.10248,0 2.07968,0 2.93159,0c0.8018,0 1.50338,0 2.10473,0c2.45552,0 3.70834,0 3.75845,0c0.05011,0 0.8018,0 2.25507,0c0,-1.10248 0,-2.80631 0,-5.1115c-2.45552,0 -6.13881,0 -11.04986,0c-2.00451,0 -3.93385,0.17539 -5.78802,0.52618c-1.85417,0.30068 -3.558,0.82686 -5.1115,1.57855c-2.95665,1.40316 -5.33701,3.65823 -7.14106,6.76522c-1.85417,3.10699 -2.78126,7.39163 -2.78126,12.85391c0,2.90654 0.27562,5.48734 0.82686,7.74242c0.55124,2.20496 1.32799,4.10924 2.33024,5.71285c1.80406,2.95665 4.25958,5.01127 7.36657,6.16387c3.05688,1.15259 6.43949,1.72889 10.14783,1.72889c0,0.05011 0,0.07517 0,0.07517c2.60586,0 6.51465,0 11.72638,0c0,-1.15259 0,-2.88148 0,-5.18667c-2.55575,0 -6.41443,0 -11.57604,0c-2.90654,0 -5.43723,-0.37585 -7.59208,-1.12754c-2.20496,-0.75169 -3.90879,-2.23002 -5.1115,-4.43498c-0.65147,-1.20271 -1.15259,-2.68103 -1.50338,-4.43498c-0.30068,-1.70383 -0.45101,-3.7334 -0.45101,-6.0887c0,-6.86544 1.30293,-11.37559 3.90879,-13.53044c2.60586,-2.15485 6.18892,-3.23227 10.74918,-3.23227z" data-paper-data="{&quot;glyphName&quot;:&quot;E&quot;,&quot;glyphIndex&quot;:5,&quot;word&quot;:2}" id="element-id-35684"/><path d="M431.32927,207.26005c1.20271,0 2.23002,0 3.08193,0c0.85192,0 1.60361,0 2.25507,0c2.55575,0 3.85868,0 3.90879,0c0.10023,0 0.92709,0 2.48058,0c0,-1.10248 0,-2.80631 0,-5.1115c-2.60586,0 -6.51465,0 -11.72638,0c-2.00451,0.05011 -3.93385,0.22551 -5.78802,0.52618c-1.80406,0.30068 -3.50789,0.82686 -5.1115,1.57855c-2.95665,1.40316 -5.33701,3.65823 -7.14106,6.76522c-1.80406,3.10699 -2.70609,7.39163 -2.70609,12.85391c0,2.90654 0.27562,5.48734 0.82686,7.74242c0.50113,2.20496 1.25282,4.10924 2.25507,5.71285c1.80406,2.95665 4.25958,5.01127 7.36657,6.16387c3.10699,1.15259 6.4896,1.72889 10.14783,1.72889c0,0.05011 0,0.07517 0,0.07517c2.65597,0 6.61488,0 11.87672,0c0,-1.15259 0,-2.88148 0,-5.18667c-2.60586,0 -6.51465,0 -11.72638,0c-2.90654,0 -5.43723,-0.37585 -7.59208,-1.12754c-2.20496,-0.75169 -3.90879,-2.23002 -5.1115,-4.43498c-0.65147,-1.20271 -1.12754,-2.68103 -1.42821,-4.43498c-0.35079,-1.70383 -0.52618,-3.7334 -0.52618,-6.0887c0,-6.86544 1.30293,-11.37559 3.90879,-13.53044c2.60586,-2.15485 6.18892,-3.23227 10.74918,-3.23227z" data-paper-data="{&quot;glyphName&quot;:&quot;C&quot;,&quot;glyphIndex&quot;:6,&quot;word&quot;:2}" id="element-id-50991"/><path d="M468.08695,221.76768c0,0 0.02506,0 0.07517,0c-0.15034,-0.20045 -0.27562,-0.42596 -0.37585,-0.67652c-0.05011,-0.25056 -0.07517,-0.50113 -0.07517,-0.75169c0,-0.35079 0.05011,-0.67652 0.15034,-0.9772c0.15034,-0.35079 0.35079,-0.65147 0.60135,-0.90203c0,0.05011 0,0.07517 0,0.07517c0.8018,-0.90203 1.85417,-2.05462 3.1571,-3.45778c1.30293,-1.35304 2.63092,-2.7562 3.98396,-4.20947c2.05462,-2.20496 3.90879,-4.20947 5.56251,-6.01353c1.65372,-1.80406 2.48058,-2.70609 2.48058,-2.70609c-0.70158,0 -1.30293,0 -1.80406,0c-0.50113,0 -0.92709,0 -1.27787,0c-1.50338,0 -2.28013,0 -2.33024,0c-0.05011,0 -0.52618,0 -1.42821,0c-3.558,3.90879 -8.92007,9.74693 -16.08619,17.5144c-0.25056,0.25056 -0.52618,0.45101 -0.82686,0.60135c-0.35079,0.15034 -0.70158,0.22551 -1.05237,0.22551c-0.45101,0 -0.85192,-0.10023 -1.20271,-0.30068c-0.4009,-0.20045 -0.70158,-0.47607 -0.90203,-0.82686c-0.15034,-0.20045 -0.27562,-0.42596 -0.37585,-0.67652c-0.05011,-0.25056 -0.07517,-0.50113 -0.07517,-0.75169c0,-1.55349 0,-2.93159 0,-4.1343c0,-1.15259 0,-2.1799 0,-3.08193c0,-3.40767 0,-5.16161 0,-5.26184c0,-0.10023 0,-1.20271 0,-3.30744c-1.30293,0 -3.25733,0 -5.86319,0c0,2.40541 0,5.1115 0,8.11826c0,8.97018 0,20.64644 0,35.0288c1.30293,0 3.25733,0 5.86319,0c0,-2.85643 0,-7.11601 0,-12.77875c0,-0.30068 0.05011,-0.60135 0.15034,-0.90203c0.15034,-0.30068 0.32573,-0.5763 0.52618,-0.82686c1.00225,-1.05237 2.50564,-2.65597 4.51015,-4.81082c0.20045,-0.10023 0.4009,-0.20045 0.60135,-0.30068c0.25056,-0.05011 0.50113,-0.10023 0.75169,-0.15034c0.35079,0 0.67652,0.07517 0.9772,0.22551c0.30068,0.10023 0.5763,0.27562 0.82686,0.52618c1.35304,1.90428 2.55575,3.558 3.60812,4.96116c1.00225,1.40316 1.87923,2.63092 2.63092,3.68329c0.60135,0.85192 1.10248,1.57855 1.50338,2.1799c0.45101,0.60135 0.85192,1.12754 1.20271,1.57855c1.30293,1.85417 2.05462,2.90654 2.25507,3.1571c0.15034,0.25056 0.95214,1.40316 2.40541,3.45778c1.50338,0 3.75845,0 6.76522,0c-3.75845,-5.26184 -9.39614,-13.10448 -16.91305,-23.52792z" data-paper-data="{&quot;glyphName&quot;:&quot;K&quot;,&quot;glyphIndex&quot;:7,&quot;lastGlyphOfWord&quot;:true,&quot;word&quot;:2}" id="element-id-23163"/></g><g data-paper-data="{&quot;fillRule&quot;:&quot;nonzero&quot;,&quot;fillRuleOriginal&quot;:&quot;nonzero&quot;,&quot;isIcon&quot;:true,&quot;iconStyle&quot;:&quot;standalone&quot;,&quot;selectedEffects&quot;:{&quot;container&quot;:&quot;&quot;,&quot;transformation&quot;:&quot;&quot;,&quot;pattern&quot;:&quot;&quot;},&quot;bounds&quot;:{&quot;x&quot;:64.99999999999997,&quot;y&quot;:202.0733783239769,&quot;width&quot;:64.60462634614541,&quot;height&quot;:65.8532433520462},&quot;iconType&quot;:&quot;initial&quot;,&quot;initialText&quot;:&quot;V&quot;,&quot;rawInitialId&quot;:757,&quot;suitableAsStandaloneIcon&quot;:true}" id="element-id-54308"><path d="M99.40647,267.92662h-2.72847l-10.17395,-24.18627c-0.70909,-1.88064 -1.06365,-3.65338 -1.06365,-5.3182c0,-1.91147 0.47787,-3.68421 1.43361,-5.3182c1.75732,-3.05219 4.59369,-5.39528 8.50913,-7.02928l8.97158,21.50404l13.78109,-37.59739c0.18499,-0.58577 0.27747,-1.14071 0.27747,-1.66483c0,-0.98656 -0.32372,-1.92689 -0.97115,-2.82096c-0.95574,-1.3257 -2.21977,-2.00396 -3.79211,-2.03479h-1.10989v-1.38736h17.06449v1.38736c-1.97313,0 -3.76128,0.63202 -5.36444,1.89605c-1.60317,1.26404 -2.74388,2.82096 -3.42215,4.67077zM81.41707,231.57785c-3.05219,-7.27592 -6.07354,-14.55184 -9.06407,-21.82776c-0.80158,-1.78815 -2.01167,-3.28342 -3.63025,-4.48579c-1.61858,-1.20238 -2.8595,-1.80357 -3.72275,-1.80357v-1.38736h12.02377c4.50121,0 7.89252,1.75732 10.17396,5.27196c1.01739,1.634 1.84981,3.34507 2.49724,5.13323c1.10989,2.58973 1.66483,4.82492 1.66483,6.70556c0,1.91148 -0.47787,3.68421 -1.43361,5.3182c-1.78815,3.11384 -4.62452,5.47235 -8.50913,7.07552z" data-paper-data="{&quot;isPathIcon&quot;:true}" id="element-id-84581"/></g><path d="M144.87735,267.92662v-65.85324h1.51054v65.85324z" data-paper-data="{&quot;isShapeTextSeparator&quot;:true}" id="element-id-59873"/></g></g><rect data-element-id="element-id-1255" stroke-width="2" fill="transparent" class="invisible-element-box grouping-element" x="168" y="202" width="317" height="43" data-element-name="isPrimaryText"/><rect data-element-id="element-id-54308" stroke-width="2" fill="transparent" class="invisible-element-box grouping-element" x="65" y="202" width="65" height="66" data-element-name="isIcon"/><rect data-element-id="element-id-84581" stroke-width="2" fill="transparent" class="invisible-element-box individual-element" x="65" y="202" width="65" height="66"/><rect data-element-id="element-id-4125" stroke-width="2" fill="transparent" class="invisible-element-box grouping-element" x="184" y="256" width="183" height="12" data-element-name="isSecondaryText"/><rect data-element-id="element-id-21123" stroke-width="2" fill="transparent" class="invisible-element-box individual-element" x="168" y="202" width="40" height="43"/><rect data-element-id="element-id-23163" stroke-width="2" fill="transparent" class="invisible-element-box individual-element" x="450" y="202" width="35" height="43"/><rect data-element-id="element-id-76557" stroke-width="2" fill="transparent" class="invisible-element-box individual-element" x="227" y="202" width="34" height="43"/><rect data-element-id="element-id-67998" stroke-width="2" fill="transparent" class="invisible-element-box individual-element" x="332" y="202" width="34" height="43"/><rect data-element-id="element-id-50991" stroke-width="2" fill="transparent" class="invisible-element-box individual-element" x="411" y="202" width="33" height="43"/><rect data-element-id="element-id-20762" stroke-width="2" fill="transparent" class="invisible-element-box individual-element" x="292" y="202" width="32" height="43"/><rect data-element-id="element-id-35684" stroke-width="2" fill="transparent" class="invisible-element-box individual-element" x="373" y="202" width="32" height="43"/><rect data-element-id="element-id-61738" stroke-width="2" fill="transparent" class="invisible-element-box individual-element" x="213" y="202" width="6" height="43"/><rect data-element-id="element-id-98190" stroke-width="2" fill="transparent" class="invisible-element-box individual-element" x="184" y="256" width="12" height="12"/><rect data-element-id="element-id-59873" stroke-width="2" fill="transparent" class="invisible-element-box individual-element" x="145" y="202" width="2" height="66"/><rect data-element-id="element-id-74162" stroke-width="2" fill="transparent" class="invisible-element-box individual-element" x="226" y="256" width="10" height="12"/><rect data-element-id="element-id-17991" stroke-width="2" fill="transparent" class="invisible-element-box individual-element" x="318" y="256" width="10" height="12"/><rect data-element-id="element-id-64905" stroke-width="2" fill="transparent" class="invisible-element-box individual-element" x="358" y="256" width="9" height="12"/><rect data-element-id="element-id-92060" stroke-width="2" fill="transparent" class="invisible-element-box individual-element" x="265" y="256" width="8" height="12"/><rect data-element-id="element-id-51836" stroke-width="2" fill="transparent" class="invisible-element-box individual-element" x="293" y="256" width="1" height="12"/></svg>